<svg xmlns="http://www.w3.org/2000/svg" viewBox="0 0 24 24" width="30" height="30" fill="#e8a923">
  <path d="M20.587 12.139c.412-.412.412-1.108 0-1.52-.413-.413-1.109-.413-1.521 0l-2.494 2.494-2.494-2.494c-.413-.413-1.109-.413-1.521 0-.412.412-.412 1.108 0 1.52l2.494 2.494-2.494 2.494c-.412.412-.412 1.108 0 1.52.413.413 1.109.413 1.521 0l2.494-2.494 2.494 2.494c.413.413 1.109.413 1.521 0 .412-.412.412-1.108 0-1.52l-2.494-2.494 2.494-2.494zM12 0C5.373 0 0 5.373 0 12s5.373 12 12 12 12-5.373 12-12S18.627 0 12 0zm0 22c-5.523 0-10-4.477-10-10S6.477 2 12 2s10 4.477 10 10-4.477 10-10 10z"/>
  <path d="M15.5 7h-7C7.672 7 7 7.672 7 8.5v7c0 .828.672 1.5 1.5 1.5h7c.828 0 1.5-.672 1.5-1.5v-7c0-.828-.672-1.5-1.5-1.5zm.5 8.5c0 .276-.224.5-.5.5h-7c-.276 0-.5-.224-.5-.5v-7c0-.276.224-.5.5-.5h7c.276 0 .5.224.5.5v7z"/>
</svg>