<svg xmlns="http://www.w3.org/2000/svg" viewBox="0 0 24 24" width="30" height="30" fill="#e8a923">
  <path d="M12 6.865a2.75 2.75 0 100 5.5 2.75 2.75 0 000-5.5zm0 4.5a1.75 1.75 0 110-3.5 1.75 1.75 0 010 3.5z"/>
  <path d="M19.823 8.75c-1.405-.88-3.115-1.394-4.932-1.394a9.063 9.063 0 00-2.89.476 9.063 9.063 0 00-2.89-.476c-1.818 0-3.528.513-4.933 1.394-2.604 1.62-2.604 4.255 0 5.875 1.405.88 3.115 1.395 4.932 1.395 1.818 0 3.528-.514 4.933-1.395 1.301-.81 1.953-1.87 1.953-2.937 0-1.068-.652-2.128-1.953-2.938a.5.5 0 00-.22 0zm-7.823 5.52a3.75 3.75 0 110-7.5 3.75 3.75 0 010 7.5zm7.823-2.938c-1.405.88-3.115 1.394-4.932 1.394-.422 0-.84-.023-1.25-.069a4.75 4.75 0 000-4.774c.41-.046.828-.07 1.25-.07 1.818 0 3.528.514 4.932 1.395 1.3.81 1.3 1.313 0 2.124z"/>
  <path d="M4.89 9.615a2.75 2.75 0 100 5.5 2.75 2.75 0 000-5.5zm0 4.5a1.75 1.75 0 110-3.5 1.75 1.75 0 010 3.5z"/>
  <path d="M23.94 11.866c0-4.6-5.304-8.327-11.833-8.327S.274 7.266.274 11.866c0 4.6 5.304 8.327 11.833 8.327s11.833-3.727 11.833-8.327zm-1 0c0 4.045-4.85 7.327-10.833 7.327S1.274 15.91 1.274 11.866c0-4.045 4.85-7.327 10.833-7.327s10.833 3.282 10.833 7.327z"/>
</svg>